<?xml version="1.0" encoding="UTF-8" standalone="no"?>
<svg
   xmlns:dc="http://purl.org/dc/elements/1.1/"
   xmlns:cc="http://creativecommons.org/ns#"
   xmlns:rdf="http://www.w3.org/1999/02/22-rdf-syntax-ns#"
   xmlns:svg="http://www.w3.org/2000/svg"
   xmlns="http://www.w3.org/2000/svg"
   xmlns:sodipodi="http://sodipodi.sourceforge.net/DTD/sodipodi-0.dtd"
   xmlns:inkscape="http://www.inkscape.org/namespaces/inkscape"
   width="15.999281"
   height="13.131"
   version="1.1"
   id="svg3883"
   sodipodi:docname="logo-mini.svg"
   inkscape:version="0.92.4 (f8dce91, 2019-08-02)">
  <metadata
     id="metadata3889">
    <rdf:RDF>
      <cc:Work
         rdf:about="">
        <dc:format>image/svg+xml</dc:format>
        <dc:type
           rdf:resource="http://purl.org/dc/dcmitype/StillImage" />
        <dc:title></dc:title>
      </cc:Work>
    </rdf:RDF>
  </metadata>
  <defs
     id="defs3887" />
  <sodipodi:namedview
     pagecolor="#ffffff"
     bordercolor="#666666"
     borderopacity="1"
     objecttolerance="10"
     gridtolerance="10"
     guidetolerance="10"
     inkscape:pageopacity="0"
     inkscape:pageshadow="2"
     inkscape:window-width="1855"
     inkscape:window-height="1056"
     id="namedview3885"
     showgrid="false"
     inkscape:zoom="44.9"
     inkscape:cx="4.6581993"
     inkscape:cy="3.6877929"
     inkscape:window-x="1985"
     inkscape:window-y="24"
     inkscape:window-maximized="1"
     inkscape:current-layer="svg3883"
     fit-margin-top="0"
     fit-margin-left="0"
     fit-margin-right="0"
     fit-margin-bottom="0" />
  <g
     id="g3881">
    <g
       id="g3893"
       transform="translate(0,-1.478)">
      <path
         style="fill:#389AEF;fill-opacity:1"
         inkscape:connector-curvature="0"
         d="m 6.5,3.478 c -3.59,0 -6.5,2.238 -6.5,5 0,1.354 0.701,2.585 1.839,3.485 -0.066,0.918 -0.287,2.041 -0.927,2.646 1.274,0 2.576,-0.798 3.399,-1.422 0.684,0.188 1.42,0.291 2.189,0.291 3.59,0 6.5,-2.237 6.5,-5 0,-2.762 -2.91,-5 -6.5,-5 z"
         id="svg_3" />
      <path
         style="fill:#F75F5D;fill-opacity:1"
         inkscape:connector-curvature="0"
         d="m 15.052281,8.965 c 0.547,-0.731 0.86,-1.581 0.86,-2.487 0,-2.762 -2.91,-5 -6.5,-5 -1.58,0 -3.028,0.434 -4.154,1.154 0.53,-0.1 1.084,-0.154 1.654,-0.154 3.866,0 7,2.463 7,5.5 0,1.197 -0.485,2.306 -1.312,3.207 0.821,0.624 2.125,1.424 3.399,1.424 -0.906,-0.86 -0.971,-2.766 -0.947,-3.644 z"
         id="svg_4" />
    </g>
  </g>
</svg>
